<?xml version="1.0" encoding="UTF-8"?>
<svg width="315px" height="511px" viewBox="0 0 315 511" version="1.1" xmlns="http://www.w3.org/2000/svg" xmlns:xlink="http://www.w3.org/1999/xlink">
    <!-- Generator: Sketch 39.1 (31720) - http://www.bohemiancoding.com/sketch -->
    <title>logo</title>
    <desc>Created with Sketch.</desc>
    <defs></defs>
    <g id="Welcome" stroke="none" stroke-width="1" fill="none" fill-rule="evenodd">
        <g id="logo-512" transform="translate(-98.000000, 0.000000)">
            <g id="logo" transform="translate(98.000000, 0.000000)">
                <g id="book" stroke-width="1">
                    <path d="M300,398.022 C300,406.846 292.846,414 284.022,414 L19.978,414 C11.154,414 4,406.846 4,398.022 L4,373.978 C4,365.154 11.154,358 19.978,358 L284.022,358 C292.846,358 300,365.154 300,373.978 L300,398.022" id="Fill-12" fill="#FFFFFF"></path>
                    <path d="M296,398.022 C295.998,401.342 294.666,404.312 292.492,406.492 C290.312,408.666 287.342,409.998 284.022,410 L19.978,410 C16.658,409.998 13.688,408.666 11.508,406.492 C9.334,404.312 8.002,401.342 8,398.022 L8,373.978 C8.002,370.658 9.334,367.688 11.508,365.508 C13.688,363.334 16.658,362.002 19.978,362 L284.022,362 C287.342,362.002 290.312,363.334 292.492,365.508 C294.666,367.688 295.998,370.658 296,373.978 L296,398.022 L304,398.022 L304,373.978 L304,354 L19.978,354 C8.942,354.002 0.002,362.942 0,373.978 L0,398.022 C0.002,409.058 8.942,417.998 19.978,418 L284.022,418 C295.058,417.998 303.998,409.058 304,398.022" id="Fill-13" fill="#0A0A08"></path>
                    <path d="M300,20.64 L300,358.822 C300,367.65 293.038,374 284.212,374 L4,374 L4,4 L284.212,4 C293.038,4 300,11.812 300,20.64" id="Fill-14" fill="#DD0031"></path>
                    <path d="M287.518,377.75 C286.446,377.916 285.346,378 284.228,378 L8,378 L8,392 L280.65,392 C289.238,392 296,389.076 296,385.33 L296,374.392 C295.93,374.44 291.846,377.364 287.518,377.75 Z" id="Fill-15" fill="#DADADA"></path>
                    <polygon id="Fill-16" fill="#C3002F" points="36 370 56 370 56 8 36 8"></polygon>
                    <path d="M284.212,374 L284.212,370 L8,370 L8,8 L284.212,8 C287.422,8.002 290.304,9.402 292.488,11.734 C294.66,14.064 296.006,17.286 296,20.64 L296,358.822 C295.986,362.178 294.73,364.844 292.666,366.816 C290.596,368.772 287.666,369.996 284.212,370 L284.212,378 C289.584,378.004 294.548,376.052 298.166,372.628 C301.79,369.218 304.014,364.296 304,358.822 L304,20.64 C303.994,15.168 301.86,10.068 298.344,6.286 C294.84,2.504 289.828,-0.004 284.212,0 L4,0 C2.946,0 1.916,0.426 1.172,1.172 C0.426,1.916 0,2.946 0,4 L0,374 C0,375.054 0.426,376.084 1.172,376.828 C1.916,377.574 2.946,378 4,378 L284.212,378 L284.212,374" id="Fill-17" fill="#0A0A08"></path>
                    <path d="M25.586,375 L20.414,375 C11.9,375 5,368.1 5,359.586 L5,18.414 C5,9.9 11.9,3 20.414,3 L25.586,3 C34.1,3 41,9.9 41,18.414 L41,359.586 C41,368.1 34.1,375 25.586,375" id="Fill-18" fill="#0A0A08"></path>
                    <path d="M25.586,375 L25.586,374 L20.414,374 C16.43,374 12.834,372.388 10.222,369.778 C7.612,367.166 6,363.57 6,359.586 L6,18.414 C6,14.43 7.612,10.834 10.222,8.222 C12.834,5.612 16.43,4 20.414,4 L25.586,4 C29.57,4 33.166,5.612 35.778,8.222 C38.388,10.834 40,14.43 40,18.414 L40,359.586 C40,363.57 38.388,367.166 35.778,369.778 C33.166,372.388 29.57,374 25.586,374 L25.586,376 C34.652,376 42,368.652 42,359.586 L42,18.414 C42,9.348 34.652,2 25.586,2 L20.414,2 C11.348,2 4,9.348 4,18.414 L4,359.586 C4,368.652 11.348,376 20.414,376 L25.586,376 L25.586,375" id="Fill-19" fill="#0A0A08"></path>
                    <polyline id="Fill-20" fill="#FFFFFF" points="126 392 126 489.21 93.934 451.74285 62 488.96112 62 392 126 392"></polyline>
                    <path d="M58,488.956 C58,490.216 58.79,491.344 59.972,491.776 C61.156,492.206 62.486,491.852 63.296,490.888 L92.93,455.636 L122.702,491.138 C123.51,492.102 124.842,492.46 126.026,492.028 C127.208,491.598 128,490.468 128,489.21 L128,392 L122,392 L122,480.964 L95.232,449.044 C94.66,448.362 93.824,447.972 92.936,447.972 C92.046,447.97 91.21,448.36 90.638,449.04 L64,480.726 L64,392 L58,392 L58,488.956 Z" id="Fill-22" fill="#0A0A08"></path>
                </g>
                <path d="M169.682598,63 L63.410728,301.290017 L63.410728,301.290017 L103.034432,301.290017 L103.034432,301.290017 L124.398365,247.971485 L214.601635,247.971485 L235.965568,301.290017 L235.965568,301.290017 L275.589272,301.290017 L275.589272,301.290017 L169.682598,63 L169.682598,63 L169.682598,63 L169.682598,63 L169.682598,63 L169.682598,63 Z M200.724209,215.103896 L138.640986,215.103896 L169.682598,140.421431 L200.724209,215.103896 L200.724209,215.103896 Z" id="A" fill="#FFFFFF"></path>
            </g>
        </g>
    </g>
</svg>